<svg width="12" height="13" fill="none" xmlns="http://www.w3.org/2000/svg"><path d="M6.012.5C9.42.5 12 3.294 12 6.491c0 3.707-3.024 6.009-6 6.009-.984 0-2.076-.264-2.952-.781-.306-.186-.564-.325-.894-.216l-1.212.36c-.306.096-.582-.144-.492-.469l.402-1.346a.629.629 0 0 0-.042-.54C.294 8.558 0 7.518 0 6.509 0 3.349 2.526.5 6.012.5Zm2.742 5.246a.77.77 0 0 0 0 1.538.77.77 0 0 0 0-1.538Zm-2.766 0a.765.765 0 0 0-.768.763c0 .427.342.77.768.775a.77.77 0 0 0 0-1.538Zm-2.766 0a.766.766 0 0 0-.768.769c0 .42.348.77.768.77a.774.774 0 0 0 .768-.77.766.766 0 0 0-.768-.77Z" fill="#1326A2"/></svg>