<svg width="12" height="13" fill="none" xmlns="http://www.w3.org/2000/svg"><path d="M3.768.8c.378.012.744.078 1.099.198h.035a.21.21 0 0 1 .054.036c.133.042.258.09.378.156l.228.102c.09.048.198.138.258.174.06.036.126.072.18.114A3.758 3.758 0 0 1 8.31.8c.379 0 .757.054 1.116.174 2.214.72 3.012 3.15 2.346 5.274a7.637 7.637 0 0 1-1.805 2.885 23.076 23.076 0 0 1-3.8 2.976l-.149.091-.156-.097a22.859 22.859 0 0 1-3.821-2.976A7.76 7.76 0 0 1 .234 6.248C-.444 4.124.354 1.694 2.593.962c.174-.06.353-.102.533-.126h.072C3.367.812 3.534.8 3.702.8h.066Zm5.346 1.896a.48.48 0 0 0-.606.3.49.49 0 0 0 .3.618c.385.144.642.522.642.942v.018c-.011.138.03.27.114.372.084.102.21.162.342.174a.493.493 0 0 0 .474-.456v-.072a1.98 1.98 0 0 0-1.266-1.896Z" fill="#fff"/></svg>